<svg width="25" height="24" viewBox="0 0 25 24" fill="none" xmlns="http://www.w3.org/2000/svg">
<path d="M8.25 10.5C7.91848 10.5 7.60054 10.6317 7.36612 10.8661C7.1317 11.1005 7 11.4185 7 11.75C7 12.0815 7.1317 12.3995 7.36612 12.6339C7.60054 12.8683 7.91848 13 8.25 13H8.26C8.59152 13 8.90946 12.8683 9.14388 12.6339C9.3783 12.3995 9.51 12.0815 9.51 11.75C9.51 11.4185 9.3783 11.1005 9.14388 10.8661C8.90946 10.6317 8.59152 10.5 8.26 10.5H8.25Z" fill="black"/>
<path d="M7.75 5.5C7.75 4.90326 7.98705 4.33097 8.40901 3.90901C8.83097 3.48705 9.40326 3.25 10 3.25H19C19.5967 3.25 20.169 3.48705 20.591 3.90901C21.0129 4.33097 21.25 4.90326 21.25 5.5V14.5C21.25 15.0967 21.0129 15.669 20.591 16.091C20.169 16.5129 19.5967 16.75 19 16.75H17.25V18.5C17.25 19.0967 17.0129 19.669 16.591 20.091C16.169 20.5129 15.5967 20.75 15 20.75H6C5.40326 20.75 4.83097 20.5129 4.40901 20.091C3.98705 19.669 3.75 19.0967 3.75 18.5V9.5C3.75 8.90326 3.98705 8.33097 4.40901 7.90901C4.83097 7.48705 5.40326 7.25 6 7.25H7.75V5.5ZM15.75 9.5C15.75 9.30109 15.671 9.11032 15.5303 8.96967C15.3897 8.82902 15.1989 8.75 15 8.75H6C5.80109 8.75 5.61032 8.82902 5.46967 8.96967C5.32902 9.11032 5.25 9.30109 5.25 9.5V16.442L10.918 13.504C11.3296 13.2904 11.7971 13.2092 12.2566 13.2715C12.7161 13.3338 13.1451 13.5365 13.485 13.852L15.75 15.956V9.5ZM5.25 18.5C5.25 18.914 5.586 19.25 6 19.25H15C15.1989 19.25 15.3897 19.171 15.5303 19.0303C15.671 18.8897 15.75 18.6989 15.75 18.5V18.003L12.464 14.952C12.3509 14.8468 12.208 14.7792 12.055 14.7582C11.902 14.7373 11.7462 14.7641 11.609 14.835L5.25 18.132V18.5ZM9.25 7.25H15C15.5967 7.25 16.169 7.48705 16.591 7.90901C17.0129 8.33097 17.25 8.90326 17.25 9.5V15.25H19C19.1989 15.25 19.3897 15.171 19.5303 15.0303C19.671 14.8897 19.75 14.6989 19.75 14.5V5.5C19.75 5.30109 19.671 5.11032 19.5303 4.96967C19.3897 4.82902 19.1989 4.75 19 4.75H10C9.80109 4.75 9.61032 4.82902 9.46967 4.96967C9.32902 5.11032 9.25 5.30109 9.25 5.5V7.25Z" fill="black"/>
</svg>
