<svg width="24" height="24" viewBox="0 0 24 24" fill="none" xmlns="http://www.w3.org/2000/svg">
<path d="M11.75 1C11.9489 1 12.1397 1.07902 12.2803 1.21967C12.421 1.36032 12.5 1.55109 12.5 1.75V4H19.032C19.452 4 19.858 4.15 20.175 4.425L23.362 7.175C23.5524 7.33928 23.7052 7.54268 23.8099 7.77133C23.9146 7.99998 23.9688 8.24851 23.9688 8.5C23.9688 8.75149 23.9146 9.00002 23.8099 9.22867C23.7052 9.45732 23.5524 9.66072 23.362 9.825L20.175 12.575C19.8573 12.8491 19.4516 13 19.032 13H12.5V22.25C12.5 22.4489 12.421 22.6397 12.2803 22.7803C12.1397 22.921 11.9489 23 11.75 23C11.5511 23 11.3603 22.921 11.2197 22.7803C11.079 22.6397 11 22.4489 11 22.25V13H3.75C3.28587 13 2.84075 12.8156 2.51256 12.4874C2.18437 12.1592 2 11.7141 2 11.25V5.75C2 4.783 2.784 4 3.75 4H11V1.75C11 1.55109 11.079 1.36032 11.2197 1.21967C11.3603 1.07902 11.5511 1 11.75 1ZM19.032 5.5H3.75C3.6837 5.5 3.62011 5.52634 3.57322 5.57322C3.52634 5.62011 3.5 5.6837 3.5 5.75V11.25C3.5 11.388 3.612 11.5 3.75 11.5H19.032C19.092 11.5 19.15 11.479 19.195 11.44L22.383 8.69C22.4107 8.66672 22.4331 8.63765 22.4484 8.60482C22.4637 8.572 22.4716 8.53622 22.4716 8.5C22.4716 8.46378 22.4637 8.428 22.4484 8.39518C22.4331 8.36235 22.4107 8.33328 22.383 8.31L19.195 5.56C19.1496 5.52116 19.0918 5.49988 19.032 5.5Z" fill="black"/>
</svg>
